<svg width="100" height="100" viewBox="0 0 100 100" fill="none" xmlns="http://www.w3.org/2000/svg">
<path d="M27.4317 22.9572L22.4342 27.795L47.0683 53.242L52.0657 48.4042L27.4317 22.9572Z" fill="#B2292E"/>
<path d="M72.0934 23.0889L47.092 48.3711L52.0377 53.2618L77.0391 27.9796L72.0934 23.0889Z" fill="#5E0813"/>
<path d="M47.4585 47.6075L23.0077 72.221L27.9422 77.123L52.3931 52.5094L47.4585 47.6075Z" fill="#B2292E"/>
<path d="M52.5445 47.5263L47.6279 52.4463L72.4247 77.2257L77.3412 72.3058L52.5445 47.5263Z" fill="#5E0813"/>
<path d="M25.4889 85C31.2817 85 35.9777 80.304 35.9777 74.5111C35.9777 68.7183 31.2817 64.0223 25.4889 64.0223C19.696 64.0223 15 68.7183 15 74.5111C15 80.304 19.696 85 25.4889 85Z" fill="#B2292E"/>
<path d="M74.4972 84.9861C80.29 84.9861 84.986 80.2901 84.986 74.4972C84.986 68.7044 80.29 64.0083 74.4972 64.0083C68.7043 64.0083 64.0083 68.7044 64.0083 74.4972C64.0083 80.2901 68.7043 84.9861 74.4972 84.9861Z" fill="#5E0813"/>
<path d="M74.5669 36.0195C80.3597 36.0195 85.0557 31.3235 85.0557 25.5306C85.0557 19.7378 80.3597 15.0417 74.5669 15.0417C68.774 15.0417 64.078 19.7378 64.078 25.5306C64.078 31.3235 68.774 36.0195 74.5669 36.0195Z" fill="#5E0813"/>
<path d="M25.5029 35.9778C31.2958 35.9778 35.9918 31.2817 35.9918 25.4889C35.9918 19.696 31.2958 15 25.5029 15C19.7101 15 15.014 19.696 15.014 25.4889C15.014 31.2817 19.7101 35.9778 25.5029 35.9778Z" fill="#B2292E"/>
<path d="M50.0973 63.6884C57.6572 63.6884 63.7857 57.5599 63.7857 50C63.7857 42.4401 57.6572 36.3116 50.0973 36.3116C42.5374 36.3116 36.4089 42.4401 36.4089 50C36.4089 57.5599 42.5374 63.6884 50.0973 63.6884Z" fill="#B2292E"/>
</svg>
